G04*
G04 #@! TF.GenerationSoftware,Altium Limited,Altium Designer,23.8.1 (32)*
G04*
G04 Layer_Color=65535*
%FSLAX44Y44*%
%MOMM*%
G71*
G04*
G04 #@! TF.SameCoordinates,8C545C58-4F73-44F2-8FA6-FEC30D537232*
G04*
G04*
G04 #@! TF.FilePolarity,Positive*
G04*
G01*
G75*
%ADD10C,0.0000*%
%ADD11C,0.2000*%
%ADD12C,0.1500*%
%ADD13C,0.2032*%
G36*
X769000Y757000D02*
Y746000D01*
X772000D01*
Y757000D01*
X769000D01*
D02*
G37*
G36*
X769051Y764805D02*
Y775805D01*
X772051D01*
Y764805D01*
X769051D01*
D02*
G37*
G36*
X838704Y738192D02*
X836107Y736493D01*
X838704Y734784D01*
Y732919D01*
X834708Y735572D01*
X831023Y733163D01*
Y734973D01*
X833321Y736493D01*
X831023Y738014D01*
Y739823D01*
X834708Y737414D01*
X838704Y740056D01*
Y738192D01*
D02*
G37*
G36*
X832322Y730433D02*
X838704D01*
Y728879D01*
X832322D01*
Y726603D01*
X831023D01*
Y732697D01*
X832322D01*
Y730433D01*
D02*
G37*
G36*
X836407Y725793D02*
X836473Y725771D01*
X836562Y725738D01*
X836662Y725693D01*
X836784Y725649D01*
X836917Y725593D01*
X837062Y725527D01*
X837361Y725371D01*
X837672Y725171D01*
X837972Y724927D01*
X838105Y724794D01*
X838227Y724650D01*
X838238Y724639D01*
X838249Y724616D01*
X838283Y724572D01*
X838327Y724505D01*
X838371Y724428D01*
X838416Y724328D01*
X838471Y724217D01*
X838527Y724095D01*
X838593Y723950D01*
X838649Y723795D01*
X838693Y723629D01*
X838738Y723451D01*
X838782Y723262D01*
X838815Y723051D01*
X838827Y722840D01*
X838838Y722607D01*
Y722541D01*
X838827Y722463D01*
X838815Y722352D01*
X838804Y722230D01*
X838782Y722075D01*
X838749Y721908D01*
X838704Y721719D01*
X838649Y721531D01*
X838582Y721331D01*
X838493Y721120D01*
X838394Y720909D01*
X838283Y720698D01*
X838138Y720487D01*
X837983Y720287D01*
X837794Y720099D01*
X837783Y720088D01*
X837750Y720054D01*
X837683Y720010D01*
X837606Y719943D01*
X837495Y719877D01*
X837372Y719788D01*
X837217Y719699D01*
X837039Y719610D01*
X836851Y719522D01*
X836640Y719433D01*
X836396Y719344D01*
X836140Y719277D01*
X835874Y719211D01*
X835574Y719166D01*
X835264Y719133D01*
X834930Y719122D01*
X834919D01*
X834908D01*
X834842D01*
X834742Y719133D01*
X834609D01*
X834453Y719155D01*
X834265Y719177D01*
X834065Y719200D01*
X833832Y719244D01*
X833598Y719300D01*
X833354Y719366D01*
X833110Y719444D01*
X832855Y719544D01*
X832611Y719655D01*
X832377Y719788D01*
X832156Y719932D01*
X831945Y720110D01*
X831934Y720121D01*
X831900Y720154D01*
X831845Y720210D01*
X831778Y720287D01*
X831700Y720387D01*
X831612Y720509D01*
X831512Y720643D01*
X831412Y720809D01*
X831312Y720987D01*
X831212Y721176D01*
X831123Y721397D01*
X831046Y721619D01*
X830979Y721875D01*
X830923Y722130D01*
X830890Y722419D01*
X830879Y722707D01*
Y722840D01*
X830890Y722940D01*
X830901Y723063D01*
X830923Y723196D01*
X830946Y723351D01*
X830979Y723518D01*
X831023Y723695D01*
X831079Y723884D01*
X831145Y724072D01*
X831234Y724272D01*
X831323Y724461D01*
X831434Y724639D01*
X831567Y724827D01*
X831712Y724994D01*
Y725005D01*
X831734Y725016D01*
X831767Y725049D01*
X831800Y725083D01*
X831856Y725127D01*
X831922Y725171D01*
X832078Y725294D01*
X832278Y725416D01*
X832522Y725549D01*
X832799Y725671D01*
X833121Y725782D01*
X833487Y724250D01*
X833476D01*
X833465Y724239D01*
X833432D01*
X833388Y724217D01*
X833288Y724184D01*
X833155Y724128D01*
X832999Y724050D01*
X832844Y723950D01*
X832688Y723817D01*
X832555Y723673D01*
X832544Y723651D01*
X832500Y723595D01*
X832444Y723506D01*
X832377Y723384D01*
X832311Y723229D01*
X832255Y723051D01*
X832211Y722852D01*
X832200Y722630D01*
Y722552D01*
X832211Y722485D01*
X832222Y722419D01*
X832233Y722330D01*
X832278Y722141D01*
X832355Y721919D01*
X832466Y721686D01*
X832533Y721564D01*
X832611Y721453D01*
X832710Y721342D01*
X832822Y721242D01*
X832833D01*
X832855Y721220D01*
X832888Y721198D01*
X832944Y721164D01*
X833010Y721120D01*
X833088Y721076D01*
X833188Y721031D01*
X833299Y720987D01*
X833432Y720931D01*
X833576Y720887D01*
X833743Y720843D01*
X833920Y720798D01*
X834120Y720765D01*
X834331Y720743D01*
X834564Y720732D01*
X834819Y720720D01*
X834831D01*
X834886D01*
X834964D01*
X835053Y720732D01*
X835175D01*
X835319Y720754D01*
X835463Y720765D01*
X835630Y720787D01*
X835974Y720854D01*
X836318Y720942D01*
X836484Y720998D01*
X836640Y721076D01*
X836784Y721153D01*
X836906Y721242D01*
X836917Y721253D01*
X836928Y721264D01*
X836962Y721298D01*
X837006Y721342D01*
X837095Y721453D01*
X837206Y721608D01*
X837328Y721797D01*
X837417Y722030D01*
X837495Y722297D01*
X837506Y722441D01*
X837517Y722596D01*
Y722652D01*
X837506Y722696D01*
X837495Y722818D01*
X837472Y722963D01*
X837417Y723118D01*
X837350Y723296D01*
X837261Y723473D01*
X837128Y723651D01*
X837106Y723673D01*
X837050Y723728D01*
X836962Y723806D01*
X836829Y723895D01*
X836651Y724006D01*
X836440Y724106D01*
X836185Y724206D01*
X835885Y724295D01*
X836351Y725804D01*
X836362D01*
X836407Y725793D01*
D02*
G37*
G36*
X785747Y741211D02*
X785814Y741188D01*
X785902Y741155D01*
X786002Y741111D01*
X786124Y741066D01*
X786258Y741011D01*
X786402Y740944D01*
X786702Y740789D01*
X787012Y740589D01*
X787312Y740345D01*
X787445Y740212D01*
X787568Y740067D01*
X787579Y740056D01*
X787590Y740034D01*
X787623Y739990D01*
X787667Y739923D01*
X787712Y739845D01*
X787756Y739745D01*
X787812Y739634D01*
X787867Y739512D01*
X787934Y739368D01*
X787989Y739213D01*
X788034Y739046D01*
X788078Y738869D01*
X788122Y738680D01*
X788156Y738469D01*
X788167Y738258D01*
X788178Y738025D01*
Y737958D01*
X788167Y737881D01*
X788156Y737770D01*
X788145Y737648D01*
X788122Y737492D01*
X788089Y737326D01*
X788045Y737137D01*
X787989Y736948D01*
X787923Y736749D01*
X787834Y736538D01*
X787734Y736327D01*
X787623Y736116D01*
X787479Y735905D01*
X787323Y735705D01*
X787135Y735516D01*
X787123Y735505D01*
X787090Y735472D01*
X787024Y735428D01*
X786946Y735361D01*
X786835Y735294D01*
X786713Y735206D01*
X786557Y735117D01*
X786380Y735028D01*
X786191Y734939D01*
X785980Y734850D01*
X785736Y734762D01*
X785481Y734695D01*
X785214Y734628D01*
X784915Y734584D01*
X784604Y734551D01*
X784271Y734540D01*
X784260D01*
X784249D01*
X784182D01*
X784082Y734551D01*
X783949D01*
X783794Y734573D01*
X783605Y734595D01*
X783405Y734617D01*
X783172Y734662D01*
X782939Y734717D01*
X782695Y734784D01*
X782450Y734862D01*
X782195Y734961D01*
X781951Y735072D01*
X781718Y735206D01*
X781496Y735350D01*
X781285Y735527D01*
X781274Y735539D01*
X781241Y735572D01*
X781185Y735627D01*
X781118Y735705D01*
X781041Y735805D01*
X780952Y735927D01*
X780852Y736060D01*
X780752Y736227D01*
X780652Y736404D01*
X780552Y736593D01*
X780464Y736815D01*
X780386Y737037D01*
X780319Y737292D01*
X780264Y737548D01*
X780230Y737836D01*
X780219Y738125D01*
Y738258D01*
X780230Y738358D01*
X780242Y738480D01*
X780264Y738613D01*
X780286Y738769D01*
X780319Y738935D01*
X780364Y739113D01*
X780419Y739301D01*
X780486Y739490D01*
X780575Y739690D01*
X780663Y739879D01*
X780774Y740056D01*
X780908Y740245D01*
X781052Y740411D01*
Y740423D01*
X781074Y740434D01*
X781107Y740467D01*
X781141Y740500D01*
X781196Y740545D01*
X781263Y740589D01*
X781418Y740711D01*
X781618Y740833D01*
X781862Y740966D01*
X782140Y741088D01*
X782462Y741199D01*
X782828Y739668D01*
X782817D01*
X782806Y739657D01*
X782772D01*
X782728Y739634D01*
X782628Y739601D01*
X782495Y739546D01*
X782339Y739468D01*
X782184Y739368D01*
X782029Y739235D01*
X781896Y739090D01*
X781884Y739068D01*
X781840Y739013D01*
X781785Y738924D01*
X781718Y738802D01*
X781651Y738647D01*
X781596Y738469D01*
X781551Y738269D01*
X781540Y738047D01*
Y737970D01*
X781551Y737903D01*
X781562Y737836D01*
X781574Y737747D01*
X781618Y737559D01*
X781696Y737337D01*
X781807Y737104D01*
X781873Y736982D01*
X781951Y736871D01*
X782051Y736760D01*
X782162Y736660D01*
X782173D01*
X782195Y736637D01*
X782228Y736615D01*
X782284Y736582D01*
X782351Y736538D01*
X782428Y736493D01*
X782528Y736449D01*
X782639Y736404D01*
X782772Y736349D01*
X782917Y736304D01*
X783083Y736260D01*
X783261Y736216D01*
X783461Y736182D01*
X783671Y736160D01*
X783905Y736149D01*
X784160Y736138D01*
X784171D01*
X784227D01*
X784304D01*
X784393Y736149D01*
X784515D01*
X784659Y736171D01*
X784804Y736182D01*
X784970Y736205D01*
X785314Y736271D01*
X785658Y736360D01*
X785825Y736415D01*
X785980Y736493D01*
X786124Y736571D01*
X786247Y736660D01*
X786258Y736671D01*
X786269Y736682D01*
X786302Y736715D01*
X786347Y736760D01*
X786435Y736871D01*
X786546Y737026D01*
X786668Y737215D01*
X786757Y737448D01*
X786835Y737714D01*
X786846Y737859D01*
X786857Y738014D01*
Y738069D01*
X786846Y738114D01*
X786835Y738236D01*
X786813Y738380D01*
X786757Y738536D01*
X786691Y738713D01*
X786602Y738891D01*
X786469Y739068D01*
X786446Y739090D01*
X786391Y739146D01*
X786302Y739224D01*
X786169Y739313D01*
X785991Y739424D01*
X785780Y739523D01*
X785525Y739623D01*
X785226Y739712D01*
X785692Y741222D01*
X785703D01*
X785747Y741211D01*
D02*
G37*
G36*
Y733463D02*
X785814Y733441D01*
X785902Y733407D01*
X786002Y733363D01*
X786124Y733319D01*
X786258Y733263D01*
X786402Y733197D01*
X786702Y733041D01*
X787012Y732841D01*
X787312Y732597D01*
X787445Y732464D01*
X787568Y732320D01*
X787579Y732309D01*
X787590Y732286D01*
X787623Y732242D01*
X787667Y732175D01*
X787712Y732098D01*
X787756Y731998D01*
X787812Y731887D01*
X787867Y731765D01*
X787934Y731620D01*
X787989Y731465D01*
X788034Y731299D01*
X788078Y731121D01*
X788122Y730932D01*
X788156Y730721D01*
X788167Y730510D01*
X788178Y730277D01*
Y730211D01*
X788167Y730133D01*
X788156Y730022D01*
X788145Y729900D01*
X788122Y729744D01*
X788089Y729578D01*
X788045Y729389D01*
X787989Y729201D01*
X787923Y729001D01*
X787834Y728790D01*
X787734Y728579D01*
X787623Y728368D01*
X787479Y728157D01*
X787323Y727957D01*
X787135Y727769D01*
X787123Y727758D01*
X787090Y727724D01*
X787024Y727680D01*
X786946Y727613D01*
X786835Y727547D01*
X786713Y727458D01*
X786557Y727369D01*
X786380Y727280D01*
X786191Y727192D01*
X785980Y727103D01*
X785736Y727014D01*
X785481Y726947D01*
X785214Y726881D01*
X784915Y726836D01*
X784604Y726803D01*
X784271Y726792D01*
X784260D01*
X784249D01*
X784182D01*
X784082Y726803D01*
X783949D01*
X783794Y726825D01*
X783605Y726848D01*
X783405Y726870D01*
X783172Y726914D01*
X782939Y726970D01*
X782695Y727036D01*
X782450Y727114D01*
X782195Y727214D01*
X781951Y727325D01*
X781718Y727458D01*
X781496Y727602D01*
X781285Y727780D01*
X781274Y727791D01*
X781241Y727824D01*
X781185Y727880D01*
X781118Y727957D01*
X781041Y728057D01*
X780952Y728179D01*
X780852Y728313D01*
X780752Y728479D01*
X780652Y728657D01*
X780552Y728845D01*
X780464Y729067D01*
X780386Y729289D01*
X780319Y729545D01*
X780264Y729800D01*
X780230Y730089D01*
X780219Y730377D01*
Y730510D01*
X780230Y730610D01*
X780242Y730732D01*
X780264Y730866D01*
X780286Y731021D01*
X780319Y731188D01*
X780364Y731365D01*
X780419Y731554D01*
X780486Y731742D01*
X780575Y731942D01*
X780663Y732131D01*
X780774Y732309D01*
X780908Y732497D01*
X781052Y732664D01*
Y732675D01*
X781074Y732686D01*
X781107Y732719D01*
X781141Y732753D01*
X781196Y732797D01*
X781263Y732841D01*
X781418Y732963D01*
X781618Y733086D01*
X781862Y733219D01*
X782140Y733341D01*
X782462Y733452D01*
X782828Y731920D01*
X782817D01*
X782806Y731909D01*
X782772D01*
X782728Y731887D01*
X782628Y731853D01*
X782495Y731798D01*
X782339Y731720D01*
X782184Y731620D01*
X782029Y731487D01*
X781896Y731343D01*
X781884Y731321D01*
X781840Y731265D01*
X781785Y731176D01*
X781718Y731054D01*
X781651Y730899D01*
X781596Y730721D01*
X781551Y730521D01*
X781540Y730300D01*
Y730222D01*
X781551Y730155D01*
X781562Y730089D01*
X781574Y730000D01*
X781618Y729811D01*
X781696Y729589D01*
X781807Y729356D01*
X781873Y729234D01*
X781951Y729123D01*
X782051Y729012D01*
X782162Y728912D01*
X782173D01*
X782195Y728890D01*
X782228Y728868D01*
X782284Y728834D01*
X782351Y728790D01*
X782428Y728745D01*
X782528Y728701D01*
X782639Y728657D01*
X782772Y728601D01*
X782917Y728557D01*
X783083Y728512D01*
X783261Y728468D01*
X783461Y728435D01*
X783671Y728412D01*
X783905Y728401D01*
X784160Y728390D01*
X784171D01*
X784227D01*
X784304D01*
X784393Y728401D01*
X784515D01*
X784659Y728424D01*
X784804Y728435D01*
X784970Y728457D01*
X785314Y728523D01*
X785658Y728612D01*
X785825Y728668D01*
X785980Y728745D01*
X786124Y728823D01*
X786247Y728912D01*
X786258Y728923D01*
X786269Y728934D01*
X786302Y728968D01*
X786347Y729012D01*
X786435Y729123D01*
X786546Y729278D01*
X786668Y729467D01*
X786757Y729700D01*
X786835Y729967D01*
X786846Y730111D01*
X786857Y730266D01*
Y730322D01*
X786846Y730366D01*
X786835Y730488D01*
X786813Y730632D01*
X786757Y730788D01*
X786691Y730965D01*
X786602Y731143D01*
X786469Y731321D01*
X786446Y731343D01*
X786391Y731398D01*
X786302Y731476D01*
X786169Y731565D01*
X785991Y731676D01*
X785780Y731776D01*
X785525Y731876D01*
X785226Y731964D01*
X785692Y733474D01*
X785703D01*
X785747Y733463D01*
D02*
G37*
G36*
X788045Y723551D02*
Y721875D01*
X780364Y719122D01*
Y720798D01*
X786047Y722752D01*
X780364Y724628D01*
Y726281D01*
X788045Y723551D01*
D02*
G37*
G36*
X864029Y739379D02*
X861431Y737681D01*
X864029Y735972D01*
Y734107D01*
X860033Y736760D01*
X856348Y734351D01*
Y736160D01*
X858645Y737681D01*
X856348Y739202D01*
Y741011D01*
X860033Y738602D01*
X864029Y741244D01*
Y739379D01*
D02*
G37*
G36*
Y732187D02*
X862364Y731077D01*
X862353Y731065D01*
X862319Y731054D01*
X862275Y731021D01*
X862219Y730977D01*
X862153Y730932D01*
X862064Y730877D01*
X861886Y730755D01*
X861687Y730610D01*
X861509Y730477D01*
X861342Y730355D01*
X861287Y730300D01*
X861232Y730255D01*
X861220Y730244D01*
X861198Y730222D01*
X861154Y730177D01*
X861098Y730122D01*
X861054Y730044D01*
X860998Y729967D01*
X860954Y729878D01*
X860910Y729789D01*
Y729778D01*
X860899Y729744D01*
X860876Y729689D01*
X860865Y729600D01*
X860843Y729489D01*
X860832Y729356D01*
X860821Y729201D01*
Y728701D01*
X864029D01*
Y727147D01*
X856348D01*
Y730610D01*
X856359Y730710D01*
Y730832D01*
X856370Y730954D01*
Y731099D01*
X856403Y731387D01*
X856436Y731687D01*
X856492Y731964D01*
X856525Y732087D01*
X856559Y732198D01*
Y732209D01*
X856570Y732220D01*
X856603Y732286D01*
X856658Y732386D01*
X856725Y732520D01*
X856836Y732664D01*
X856958Y732808D01*
X857113Y732952D01*
X857302Y733086D01*
X857313D01*
X857324Y733097D01*
X857358Y733119D01*
X857391Y733141D01*
X857502Y733197D01*
X857646Y733263D01*
X857824Y733319D01*
X858024Y733374D01*
X858257Y733419D01*
X858501Y733430D01*
X858512D01*
X858534D01*
X858590D01*
X858645Y733419D01*
X858723D01*
X858801Y733407D01*
X859000Y733363D01*
X859234Y733308D01*
X859467Y733219D01*
X859711Y733086D01*
X859822Y733008D01*
X859933Y732919D01*
X859944Y732908D01*
X859955Y732897D01*
X859988Y732864D01*
X860022Y732819D01*
X860066Y732775D01*
X860122Y732708D01*
X860177Y732630D01*
X860232Y732542D01*
X860299Y732442D01*
X860355Y732320D01*
X860410Y732198D01*
X860466Y732064D01*
X860521Y731909D01*
X860565Y731754D01*
X860610Y731587D01*
X860643Y731398D01*
Y731410D01*
X860654Y731421D01*
X860699Y731487D01*
X860754Y731576D01*
X860832Y731687D01*
X860932Y731820D01*
X861032Y731953D01*
X861154Y732098D01*
X861287Y732220D01*
X861298Y732231D01*
X861354Y732286D01*
X861442Y732353D01*
X861576Y732453D01*
X861742Y732586D01*
X861853Y732653D01*
X861964Y732730D01*
X862086Y732819D01*
X862219Y732908D01*
X862375Y733008D01*
X862530Y733108D01*
X864029Y734051D01*
Y732187D01*
D02*
G37*
G36*
X861731Y725793D02*
X861798Y725771D01*
X861886Y725738D01*
X861986Y725693D01*
X862108Y725649D01*
X862242Y725593D01*
X862386Y725527D01*
X862686Y725371D01*
X862996Y725171D01*
X863296Y724927D01*
X863429Y724794D01*
X863551Y724650D01*
X863562Y724639D01*
X863574Y724616D01*
X863607Y724572D01*
X863651Y724505D01*
X863696Y724428D01*
X863740Y724328D01*
X863796Y724217D01*
X863851Y724095D01*
X863918Y723950D01*
X863973Y723795D01*
X864018Y723628D01*
X864062Y723451D01*
X864106Y723262D01*
X864140Y723051D01*
X864151Y722840D01*
X864162Y722607D01*
Y722541D01*
X864151Y722463D01*
X864140Y722352D01*
X864129Y722230D01*
X864106Y722075D01*
X864073Y721908D01*
X864029Y721719D01*
X863973Y721531D01*
X863907Y721331D01*
X863818Y721120D01*
X863718Y720909D01*
X863607Y720698D01*
X863463Y720487D01*
X863307Y720287D01*
X863119Y720099D01*
X863107Y720088D01*
X863074Y720054D01*
X863008Y720010D01*
X862930Y719943D01*
X862819Y719877D01*
X862697Y719788D01*
X862541Y719699D01*
X862364Y719610D01*
X862175Y719522D01*
X861964Y719433D01*
X861720Y719344D01*
X861465Y719277D01*
X861198Y719211D01*
X860899Y719166D01*
X860588Y719133D01*
X860255Y719122D01*
X860244D01*
X860232D01*
X860166D01*
X860066Y719133D01*
X859933D01*
X859778Y719155D01*
X859589Y719177D01*
X859389Y719200D01*
X859156Y719244D01*
X858923Y719300D01*
X858679Y719366D01*
X858434Y719444D01*
X858179Y719544D01*
X857935Y719655D01*
X857702Y719788D01*
X857480Y719932D01*
X857269Y720110D01*
X857258Y720121D01*
X857225Y720154D01*
X857169Y720210D01*
X857102Y720287D01*
X857025Y720387D01*
X856936Y720509D01*
X856836Y720643D01*
X856736Y720809D01*
X856636Y720987D01*
X856536Y721176D01*
X856448Y721397D01*
X856370Y721619D01*
X856303Y721875D01*
X856248Y722130D01*
X856214Y722419D01*
X856203Y722707D01*
Y722840D01*
X856214Y722940D01*
X856226Y723062D01*
X856248Y723196D01*
X856270Y723351D01*
X856303Y723518D01*
X856348Y723695D01*
X856403Y723884D01*
X856470Y724072D01*
X856559Y724272D01*
X856647Y724461D01*
X856758Y724639D01*
X856891Y724827D01*
X857036Y724994D01*
Y725005D01*
X857058Y725016D01*
X857091Y725049D01*
X857125Y725083D01*
X857180Y725127D01*
X857247Y725171D01*
X857402Y725294D01*
X857602Y725416D01*
X857846Y725549D01*
X858124Y725671D01*
X858446Y725782D01*
X858812Y724250D01*
X858801D01*
X858790Y724239D01*
X858756D01*
X858712Y724217D01*
X858612Y724184D01*
X858479Y724128D01*
X858323Y724050D01*
X858168Y723950D01*
X858013Y723817D01*
X857879Y723673D01*
X857868Y723651D01*
X857824Y723595D01*
X857768Y723506D01*
X857702Y723384D01*
X857635Y723229D01*
X857580Y723051D01*
X857535Y722851D01*
X857524Y722629D01*
Y722552D01*
X857535Y722485D01*
X857546Y722419D01*
X857558Y722330D01*
X857602Y722141D01*
X857680Y721919D01*
X857791Y721686D01*
X857857Y721564D01*
X857935Y721453D01*
X858035Y721342D01*
X858146Y721242D01*
X858157D01*
X858179Y721220D01*
X858212Y721198D01*
X858268Y721164D01*
X858335Y721120D01*
X858412Y721076D01*
X858512Y721031D01*
X858623Y720987D01*
X858756Y720931D01*
X858901Y720887D01*
X859067Y720843D01*
X859245Y720798D01*
X859445Y720765D01*
X859655Y720743D01*
X859889Y720732D01*
X860144Y720720D01*
X860155D01*
X860210D01*
X860288D01*
X860377Y720732D01*
X860499D01*
X860643Y720754D01*
X860788Y720765D01*
X860954Y720787D01*
X861298Y720854D01*
X861642Y720942D01*
X861809Y720998D01*
X861964Y721076D01*
X862108Y721153D01*
X862231Y721242D01*
X862242Y721253D01*
X862253Y721264D01*
X862286Y721298D01*
X862330Y721342D01*
X862419Y721453D01*
X862530Y721608D01*
X862652Y721797D01*
X862741Y722030D01*
X862819Y722297D01*
X862830Y722441D01*
X862841Y722596D01*
Y722652D01*
X862830Y722696D01*
X862819Y722818D01*
X862797Y722962D01*
X862741Y723118D01*
X862674Y723296D01*
X862586Y723473D01*
X862452Y723651D01*
X862430Y723673D01*
X862375Y723728D01*
X862286Y723806D01*
X862153Y723895D01*
X861975Y724006D01*
X861764Y724106D01*
X861509Y724206D01*
X861209Y724295D01*
X861675Y725804D01*
X861687D01*
X861731Y725793D01*
D02*
G37*
G36*
X809862Y741910D02*
X809950D01*
X810061Y741899D01*
X810183Y741888D01*
X810439Y741865D01*
X810705Y741821D01*
X810983Y741755D01*
X811249Y741677D01*
X811260D01*
X811282Y741666D01*
X811327Y741644D01*
X811393Y741621D01*
X811460Y741599D01*
X811538Y741555D01*
X811737Y741466D01*
X811948Y741355D01*
X812181Y741211D01*
X812403Y741044D01*
X812614Y740855D01*
X812636Y740833D01*
X812681Y740778D01*
X812747Y740689D01*
X812836Y740567D01*
X812936Y740411D01*
X813036Y740234D01*
X813136Y740012D01*
X813225Y739768D01*
Y739756D01*
X813236Y739745D01*
Y739712D01*
X813247Y739679D01*
X813269Y739557D01*
X813303Y739401D01*
X813336Y739213D01*
X813358Y738979D01*
X813369Y738702D01*
X813380Y738402D01*
Y735494D01*
X805699D01*
Y738558D01*
X805710Y738647D01*
X805721Y738857D01*
X805732Y739090D01*
X805766Y739335D01*
X805799Y739568D01*
X805854Y739779D01*
Y739790D01*
X805866Y739812D01*
X805877Y739845D01*
X805888Y739890D01*
X805943Y740023D01*
X806021Y740178D01*
X806121Y740356D01*
X806243Y740556D01*
X806387Y740744D01*
X806565Y740933D01*
Y740944D01*
X806587Y740955D01*
X806654Y741011D01*
X806765Y741100D01*
X806909Y741199D01*
X807087Y741322D01*
X807298Y741444D01*
X807542Y741566D01*
X807808Y741666D01*
X807819D01*
X807841Y741677D01*
X807886Y741688D01*
X807941Y741710D01*
X808008Y741721D01*
X808097Y741743D01*
X808197Y741766D01*
X808308Y741799D01*
X808430Y741821D01*
X808574Y741843D01*
X808718Y741865D01*
X808885Y741877D01*
X809229Y741910D01*
X809617Y741921D01*
X809628D01*
X809662D01*
X809706D01*
X809773D01*
X809862Y741910D01*
D02*
G37*
G36*
X813380Y732298D02*
X808319Y729178D01*
X813380D01*
Y727747D01*
X805699D01*
Y729245D01*
X810872Y732420D01*
X805699D01*
Y733851D01*
X813380D01*
Y732298D01*
D02*
G37*
G36*
X812370Y726281D02*
X812392Y726248D01*
X812426Y726215D01*
X812470Y726159D01*
X812514Y726104D01*
X812625Y725948D01*
X812747Y725738D01*
X812892Y725493D01*
X813036Y725216D01*
X813169Y724883D01*
Y724872D01*
X813180Y724838D01*
X813203Y724794D01*
X813225Y724727D01*
X813247Y724639D01*
X813280Y724539D01*
X813314Y724428D01*
X813347Y724306D01*
X813413Y724028D01*
X813469Y723706D01*
X813513Y723373D01*
X813524Y723018D01*
Y722896D01*
X813513Y722818D01*
Y722707D01*
X813502Y722585D01*
X813480Y722452D01*
X813458Y722297D01*
X813402Y721975D01*
X813314Y721619D01*
X813192Y721253D01*
X813114Y721087D01*
X813025Y720909D01*
X813014Y720898D01*
X813003Y720876D01*
X812970Y720820D01*
X812925Y720765D01*
X812881Y720687D01*
X812814Y720609D01*
X812736Y720509D01*
X812648Y720410D01*
X812448Y720188D01*
X812193Y719966D01*
X811904Y719755D01*
X811571Y719566D01*
X811560D01*
X811526Y719544D01*
X811471Y719522D01*
X811404Y719499D01*
X811316Y719466D01*
X811216Y719422D01*
X811094Y719388D01*
X810960Y719344D01*
X810816Y719300D01*
X810650Y719266D01*
X810305Y719189D01*
X809928Y719144D01*
X809517Y719122D01*
X809506D01*
X809462D01*
X809395D01*
X809318Y719133D01*
X809207D01*
X809084Y719144D01*
X808951Y719166D01*
X808796Y719189D01*
X808474Y719244D01*
X808108Y719333D01*
X807741Y719455D01*
X807564Y719533D01*
X807386Y719622D01*
X807375Y719633D01*
X807342Y719644D01*
X807298Y719677D01*
X807231Y719710D01*
X807153Y719766D01*
X807064Y719832D01*
X806964Y719910D01*
X806853Y719988D01*
X806742Y720088D01*
X806620Y720199D01*
X806498Y720321D01*
X806376Y720454D01*
X806265Y720598D01*
X806143Y720743D01*
X805943Y721087D01*
Y721098D01*
X805921Y721120D01*
X805910Y721164D01*
X805877Y721220D01*
X805854Y721298D01*
X805821Y721375D01*
X805788Y721486D01*
X805743Y721597D01*
X805710Y721719D01*
X805677Y721864D01*
X805644Y722019D01*
X805610Y722175D01*
X805566Y722530D01*
X805555Y722929D01*
Y723062D01*
X805566Y723162D01*
X805577Y723284D01*
X805588Y723429D01*
X805599Y723584D01*
X805632Y723751D01*
X805699Y724106D01*
X805810Y724472D01*
X805877Y724661D01*
X805954Y724838D01*
X806043Y725005D01*
X806154Y725160D01*
X806165Y725171D01*
X806176Y725194D01*
X806221Y725238D01*
X806265Y725294D01*
X806321Y725360D01*
X806398Y725427D01*
X806487Y725504D01*
X806587Y725593D01*
X806698Y725682D01*
X806820Y725771D01*
X806953Y725860D01*
X807109Y725937D01*
X807264Y726026D01*
X807431Y726093D01*
X807619Y726159D01*
X807808Y726204D01*
X808097Y724661D01*
X808086D01*
X808074Y724650D01*
X808008Y724628D01*
X807908Y724583D01*
X807775Y724517D01*
X807630Y724439D01*
X807486Y724328D01*
X807342Y724195D01*
X807209Y724039D01*
X807198Y724017D01*
X807153Y723961D01*
X807098Y723862D01*
X807042Y723739D01*
X806976Y723573D01*
X806931Y723384D01*
X806887Y723173D01*
X806876Y722929D01*
Y722829D01*
X806887Y722763D01*
X806898Y722674D01*
X806909Y722574D01*
X806931Y722463D01*
X806953Y722341D01*
X807031Y722086D01*
X807087Y721953D01*
X807153Y721819D01*
X807231Y721686D01*
X807309Y721553D01*
X807420Y721431D01*
X807531Y721309D01*
X807542Y721298D01*
X807564Y721286D01*
X807597Y721253D01*
X807653Y721220D01*
X807719Y721176D01*
X807797Y721120D01*
X807897Y721065D01*
X808008Y721020D01*
X808141Y720965D01*
X808285Y720909D01*
X808441Y720854D01*
X808607Y720809D01*
X808796Y720776D01*
X809007Y720743D01*
X809218Y720732D01*
X809451Y720720D01*
X809462D01*
X809506D01*
X809584D01*
X809673Y720732D01*
X809795Y720743D01*
X809917Y720754D01*
X810072Y720776D01*
X810228Y720798D01*
X810561Y720865D01*
X810905Y720976D01*
X811071Y721042D01*
X811227Y721120D01*
X811382Y721220D01*
X811515Y721320D01*
X811526Y721331D01*
X811549Y721353D01*
X811582Y721386D01*
X811626Y721431D01*
X811671Y721497D01*
X811737Y721564D01*
X811793Y721653D01*
X811860Y721753D01*
X811926Y721864D01*
X811982Y721975D01*
X812093Y722252D01*
X812137Y722408D01*
X812170Y722563D01*
X812193Y722740D01*
X812204Y722918D01*
Y723007D01*
X812193Y723096D01*
X812181Y723229D01*
X812159Y723373D01*
X812126Y723540D01*
X812082Y723717D01*
X812015Y723895D01*
Y723906D01*
X812004Y723917D01*
X811982Y723973D01*
X811937Y724072D01*
X811882Y724184D01*
X811815Y724317D01*
X811737Y724461D01*
X811649Y724605D01*
X811549Y724738D01*
X810561D01*
Y722962D01*
X809262D01*
Y726304D01*
X812348D01*
X812370Y726281D01*
D02*
G37*
G36*
X889353Y747227D02*
X885990D01*
Y744196D01*
X889353D01*
Y742643D01*
X881672D01*
Y744196D01*
X884691D01*
Y747227D01*
X881672D01*
Y748781D01*
X889353D01*
Y747227D01*
D02*
G37*
G36*
Y739446D02*
X884291Y736327D01*
X889353D01*
Y734895D01*
X881672D01*
Y736393D01*
X886844Y739568D01*
X881672D01*
Y741000D01*
X889353D01*
Y739446D01*
D02*
G37*
G36*
Y732386D02*
X887610Y731720D01*
Y728635D01*
X889353Y728002D01*
Y726359D01*
X881672Y729334D01*
Y730977D01*
X889353Y734062D01*
Y732386D01*
D02*
G37*
G36*
X887055Y725793D02*
X887122Y725771D01*
X887211Y725738D01*
X887310Y725693D01*
X887433Y725649D01*
X887566Y725593D01*
X887710Y725527D01*
X888010Y725371D01*
X888321Y725171D01*
X888620Y724927D01*
X888754Y724794D01*
X888876Y724650D01*
X888887Y724639D01*
X888898Y724616D01*
X888931Y724572D01*
X888976Y724505D01*
X889020Y724428D01*
X889064Y724328D01*
X889120Y724217D01*
X889175Y724095D01*
X889242Y723950D01*
X889297Y723795D01*
X889342Y723629D01*
X889386Y723451D01*
X889431Y723262D01*
X889464Y723051D01*
X889475Y722840D01*
X889486Y722607D01*
Y722541D01*
X889475Y722463D01*
X889464Y722352D01*
X889453Y722230D01*
X889431Y722075D01*
X889397Y721908D01*
X889353Y721719D01*
X889297Y721531D01*
X889231Y721331D01*
X889142Y721120D01*
X889042Y720909D01*
X888931Y720698D01*
X888787Y720487D01*
X888631Y720287D01*
X888443Y720099D01*
X888432Y720088D01*
X888398Y720054D01*
X888332Y720010D01*
X888254Y719943D01*
X888143Y719877D01*
X888021Y719788D01*
X887866Y719699D01*
X887688Y719610D01*
X887499Y719522D01*
X887288Y719433D01*
X887044Y719344D01*
X886789Y719277D01*
X886523Y719211D01*
X886223Y719166D01*
X885912Y719133D01*
X885579Y719122D01*
X885568D01*
X885557D01*
X885490D01*
X885390Y719133D01*
X885257D01*
X885102Y719155D01*
X884913Y719177D01*
X884713Y719200D01*
X884480Y719244D01*
X884247Y719300D01*
X884003Y719366D01*
X883759Y719444D01*
X883503Y719544D01*
X883259Y719655D01*
X883026Y719788D01*
X882804Y719932D01*
X882593Y720110D01*
X882582Y720121D01*
X882549Y720154D01*
X882493Y720210D01*
X882427Y720287D01*
X882349Y720387D01*
X882260Y720509D01*
X882160Y720643D01*
X882060Y720809D01*
X881960Y720987D01*
X881861Y721176D01*
X881772Y721397D01*
X881694Y721619D01*
X881627Y721875D01*
X881572Y722130D01*
X881539Y722419D01*
X881527Y722707D01*
Y722840D01*
X881539Y722940D01*
X881550Y723063D01*
X881572Y723196D01*
X881594Y723351D01*
X881627Y723518D01*
X881672Y723695D01*
X881727Y723884D01*
X881794Y724072D01*
X881883Y724272D01*
X881972Y724461D01*
X882083Y724639D01*
X882216Y724827D01*
X882360Y724994D01*
Y725005D01*
X882382Y725016D01*
X882415Y725049D01*
X882449Y725083D01*
X882504Y725127D01*
X882571Y725171D01*
X882726Y725294D01*
X882926Y725416D01*
X883170Y725549D01*
X883448Y725671D01*
X883770Y725782D01*
X884136Y724250D01*
X884125D01*
X884114Y724239D01*
X884081D01*
X884036Y724217D01*
X883936Y724184D01*
X883803Y724128D01*
X883648Y724050D01*
X883492Y723950D01*
X883337Y723817D01*
X883204Y723673D01*
X883193Y723651D01*
X883148Y723595D01*
X883093Y723506D01*
X883026Y723384D01*
X882959Y723229D01*
X882904Y723051D01*
X882859Y722852D01*
X882848Y722630D01*
Y722552D01*
X882859Y722485D01*
X882871Y722419D01*
X882882Y722330D01*
X882926Y722141D01*
X883004Y721919D01*
X883115Y721686D01*
X883181Y721564D01*
X883259Y721453D01*
X883359Y721342D01*
X883470Y721242D01*
X883481D01*
X883503Y721220D01*
X883537Y721198D01*
X883592Y721164D01*
X883659Y721120D01*
X883736Y721076D01*
X883836Y721031D01*
X883947Y720987D01*
X884081Y720931D01*
X884225Y720887D01*
X884391Y720843D01*
X884569Y720798D01*
X884769Y720765D01*
X884980Y720743D01*
X885213Y720732D01*
X885468Y720720D01*
X885479D01*
X885535D01*
X885612D01*
X885701Y720732D01*
X885823D01*
X885967Y720754D01*
X886112Y720765D01*
X886278Y720787D01*
X886622Y720854D01*
X886966Y720942D01*
X887133Y720998D01*
X887288Y721076D01*
X887433Y721153D01*
X887555Y721242D01*
X887566Y721253D01*
X887577Y721264D01*
X887610Y721298D01*
X887655Y721342D01*
X887743Y721453D01*
X887854Y721608D01*
X887977Y721797D01*
X888065Y722030D01*
X888143Y722297D01*
X888154Y722441D01*
X888165Y722596D01*
Y722652D01*
X888154Y722696D01*
X888143Y722818D01*
X888121Y722963D01*
X888065Y723118D01*
X887999Y723296D01*
X887910Y723473D01*
X887777Y723651D01*
X887755Y723673D01*
X887699Y723728D01*
X887610Y723806D01*
X887477Y723895D01*
X887299Y724006D01*
X887088Y724106D01*
X886833Y724206D01*
X886534Y724295D01*
X887000Y725804D01*
X887011D01*
X887055Y725793D01*
D02*
G37*
G36*
X914677Y742676D02*
X907052D01*
Y744230D01*
X913379D01*
Y748092D01*
X914677D01*
Y742676D01*
D02*
G37*
G36*
Y739446D02*
X909616Y736327D01*
X914677D01*
Y734895D01*
X906996D01*
Y736393D01*
X912169Y739568D01*
X906996D01*
Y741000D01*
X914677D01*
Y739446D01*
D02*
G37*
G36*
Y732386D02*
X912934Y731720D01*
Y728635D01*
X914677Y728002D01*
Y726359D01*
X906996Y729334D01*
Y730977D01*
X914677Y734062D01*
Y732386D01*
D02*
G37*
G36*
X912380Y725793D02*
X912446Y725771D01*
X912535Y725738D01*
X912635Y725693D01*
X912757Y725649D01*
X912890Y725593D01*
X913034Y725527D01*
X913334Y725371D01*
X913645Y725171D01*
X913945Y724927D01*
X914078Y724794D01*
X914200Y724650D01*
X914211Y724639D01*
X914222Y724616D01*
X914255Y724572D01*
X914300Y724505D01*
X914344Y724428D01*
X914389Y724328D01*
X914444Y724217D01*
X914500Y724095D01*
X914566Y723950D01*
X914622Y723795D01*
X914666Y723629D01*
X914710Y723451D01*
X914755Y723262D01*
X914788Y723051D01*
X914799Y722840D01*
X914810Y722607D01*
Y722541D01*
X914799Y722463D01*
X914788Y722352D01*
X914777Y722230D01*
X914755Y722075D01*
X914722Y721908D01*
X914677Y721719D01*
X914622Y721531D01*
X914555Y721331D01*
X914466Y721120D01*
X914366Y720909D01*
X914255Y720698D01*
X914111Y720487D01*
X913956Y720287D01*
X913767Y720099D01*
X913756Y720088D01*
X913723Y720054D01*
X913656Y720010D01*
X913578Y719943D01*
X913467Y719877D01*
X913345Y719788D01*
X913190Y719699D01*
X913012Y719610D01*
X912823Y719522D01*
X912613Y719433D01*
X912368Y719344D01*
X912113Y719277D01*
X911847Y719211D01*
X911547Y719166D01*
X911236Y719133D01*
X910903Y719122D01*
X910892D01*
X910881D01*
X910814D01*
X910714Y719133D01*
X910581D01*
X910426Y719155D01*
X910237Y719177D01*
X910037Y719200D01*
X909804Y719244D01*
X909571Y719300D01*
X909327Y719366D01*
X909083Y719444D01*
X908828Y719544D01*
X908583Y719655D01*
X908350Y719788D01*
X908128Y719932D01*
X907917Y720110D01*
X907906Y720121D01*
X907873Y720154D01*
X907818Y720210D01*
X907751Y720287D01*
X907673Y720387D01*
X907584Y720509D01*
X907485Y720643D01*
X907385Y720809D01*
X907285Y720987D01*
X907185Y721176D01*
X907096Y721397D01*
X907018Y721619D01*
X906952Y721875D01*
X906896Y722130D01*
X906863Y722419D01*
X906852Y722707D01*
Y722840D01*
X906863Y722940D01*
X906874Y723063D01*
X906896Y723196D01*
X906918Y723351D01*
X906952Y723518D01*
X906996Y723695D01*
X907052Y723884D01*
X907118Y724072D01*
X907207Y724272D01*
X907296Y724461D01*
X907407Y724639D01*
X907540Y724827D01*
X907684Y724994D01*
Y725005D01*
X907707Y725016D01*
X907740Y725049D01*
X907773Y725083D01*
X907829Y725127D01*
X907895Y725171D01*
X908051Y725294D01*
X908250Y725416D01*
X908495Y725549D01*
X908772Y725671D01*
X909094Y725782D01*
X909460Y724250D01*
X909449D01*
X909438Y724239D01*
X909405D01*
X909360Y724217D01*
X909260Y724184D01*
X909127Y724128D01*
X908972Y724050D01*
X908817Y723950D01*
X908661Y723817D01*
X908528Y723673D01*
X908517Y723651D01*
X908472Y723595D01*
X908417Y723506D01*
X908350Y723384D01*
X908284Y723229D01*
X908228Y723051D01*
X908184Y722852D01*
X908173Y722630D01*
Y722552D01*
X908184Y722485D01*
X908195Y722419D01*
X908206Y722330D01*
X908250Y722141D01*
X908328Y721919D01*
X908439Y721686D01*
X908506Y721564D01*
X908583Y721453D01*
X908683Y721342D01*
X908794Y721242D01*
X908805D01*
X908828Y721220D01*
X908861Y721198D01*
X908916Y721164D01*
X908983Y721120D01*
X909061Y721076D01*
X909161Y721031D01*
X909272Y720987D01*
X909405Y720931D01*
X909549Y720887D01*
X909716Y720843D01*
X909893Y720798D01*
X910093Y720765D01*
X910304Y720743D01*
X910537Y720732D01*
X910792Y720720D01*
X910803D01*
X910859D01*
X910937D01*
X911025Y720732D01*
X911147D01*
X911292Y720754D01*
X911436Y720765D01*
X911602Y720787D01*
X911947Y720854D01*
X912291Y720942D01*
X912457Y720998D01*
X912613Y721076D01*
X912757Y721153D01*
X912879Y721242D01*
X912890Y721253D01*
X912901Y721264D01*
X912934Y721298D01*
X912979Y721342D01*
X913068Y721453D01*
X913179Y721608D01*
X913301Y721797D01*
X913390Y722030D01*
X913467Y722297D01*
X913478Y722441D01*
X913490Y722596D01*
Y722652D01*
X913478Y722696D01*
X913467Y722818D01*
X913445Y722963D01*
X913390Y723118D01*
X913323Y723296D01*
X913234Y723473D01*
X913101Y723651D01*
X913079Y723673D01*
X913023Y723728D01*
X912934Y723806D01*
X912801Y723895D01*
X912624Y724006D01*
X912413Y724106D01*
X912158Y724206D01*
X911858Y724295D01*
X912324Y725804D01*
X912335D01*
X912380Y725793D01*
D02*
G37*
G36*
X937948Y725360D02*
X938026Y725349D01*
X938181Y725327D01*
X938381Y725282D01*
X938592Y725216D01*
X938803Y725116D01*
X939025Y724994D01*
X939036D01*
X939047Y724972D01*
X939113Y724927D01*
X939224Y724838D01*
X939347Y724727D01*
X939491Y724583D01*
X939624Y724394D01*
X939757Y724195D01*
X939879Y723950D01*
Y723939D01*
X939890Y723917D01*
X939902Y723884D01*
X939924Y723828D01*
X939946Y723762D01*
X939968Y723684D01*
X939990Y723595D01*
X940013Y723495D01*
X940046Y723373D01*
X940068Y723251D01*
X940112Y722962D01*
X940146Y722641D01*
X940157Y722285D01*
Y722141D01*
X940146Y722041D01*
X940135Y721919D01*
X940124Y721786D01*
X940101Y721630D01*
X940068Y721464D01*
X939990Y721098D01*
X939935Y720909D01*
X939879Y720732D01*
X939802Y720543D01*
X939713Y720365D01*
X939613Y720199D01*
X939491Y720043D01*
X939480Y720032D01*
X939458Y720010D01*
X939424Y719966D01*
X939369Y719921D01*
X939291Y719855D01*
X939202Y719788D01*
X939102Y719710D01*
X938991Y719633D01*
X938858Y719555D01*
X938714Y719477D01*
X938547Y719399D01*
X938370Y719322D01*
X938181Y719266D01*
X937970Y719200D01*
X937748Y719155D01*
X937515Y719122D01*
X937371Y720632D01*
X937382D01*
X937404Y720643D01*
X937449D01*
X937493Y720654D01*
X937626Y720698D01*
X937793Y720754D01*
X937981Y720820D01*
X938170Y720920D01*
X938336Y721031D01*
X938492Y721175D01*
X938503Y721198D01*
X938547Y721253D01*
X938603Y721342D01*
X938670Y721475D01*
X938736Y721642D01*
X938792Y721830D01*
X938836Y722052D01*
X938847Y722308D01*
Y722430D01*
X938825Y722563D01*
X938803Y722729D01*
X938769Y722907D01*
X938714Y723096D01*
X938636Y723273D01*
X938536Y723429D01*
X938525Y723451D01*
X938481Y723495D01*
X938414Y723551D01*
X938325Y723628D01*
X938214Y723695D01*
X938081Y723762D01*
X937948Y723806D01*
X937793Y723817D01*
X937782D01*
X937748D01*
X937693Y723806D01*
X937626Y723795D01*
X937560Y723773D01*
X937482Y723751D01*
X937404Y723706D01*
X937326Y723651D01*
X937315Y723640D01*
X937293Y723617D01*
X937260Y723584D01*
X937215Y723529D01*
X937160Y723451D01*
X937104Y723351D01*
X937049Y723240D01*
X936993Y723096D01*
Y723085D01*
X936971Y723040D01*
X936949Y722962D01*
X936927Y722907D01*
X936916Y722840D01*
X936893Y722763D01*
X936860Y722674D01*
X936838Y722574D01*
X936805Y722463D01*
X936771Y722330D01*
X936738Y722186D01*
X936694Y722030D01*
X936649Y721852D01*
Y721841D01*
X936638Y721797D01*
X936616Y721730D01*
X936594Y721653D01*
X936561Y721553D01*
X936527Y721431D01*
X936483Y721309D01*
X936438Y721164D01*
X936327Y720876D01*
X936194Y720598D01*
X936128Y720454D01*
X936050Y720332D01*
X935972Y720210D01*
X935894Y720110D01*
X935883Y720099D01*
X935861Y720077D01*
X935828Y720043D01*
X935783Y719999D01*
X935717Y719943D01*
X935639Y719888D01*
X935562Y719821D01*
X935462Y719766D01*
X935229Y719633D01*
X934962Y719522D01*
X934818Y719477D01*
X934673Y719444D01*
X934507Y719422D01*
X934341Y719411D01*
X934329D01*
X934318D01*
X934285D01*
X934241D01*
X934130Y719433D01*
X933985Y719455D01*
X933819Y719488D01*
X933630Y719544D01*
X933430Y719622D01*
X933242Y719733D01*
X933231D01*
X933220Y719744D01*
X933153Y719799D01*
X933064Y719866D01*
X932953Y719977D01*
X932831Y720110D01*
X932698Y720276D01*
X932576Y720465D01*
X932465Y720687D01*
Y720698D01*
X932454Y720720D01*
X932442Y720754D01*
X932420Y720798D01*
X932398Y720865D01*
X932376Y720931D01*
X932354Y721020D01*
X932320Y721120D01*
X932276Y721342D01*
X932232Y721597D01*
X932198Y721886D01*
X932187Y722208D01*
Y722341D01*
X932198Y722441D01*
X932209Y722563D01*
X932221Y722707D01*
X932243Y722851D01*
X932265Y723018D01*
X932343Y723373D01*
X932398Y723551D01*
X932454Y723728D01*
X932531Y723906D01*
X932620Y724072D01*
X932720Y724228D01*
X932831Y724372D01*
X932842Y724383D01*
X932864Y724406D01*
X932898Y724439D01*
X932942Y724483D01*
X933009Y724539D01*
X933086Y724605D01*
X933175Y724672D01*
X933275Y724750D01*
X933397Y724816D01*
X933519Y724883D01*
X933663Y724949D01*
X933819Y725005D01*
X933974Y725060D01*
X934152Y725105D01*
X934329Y725138D01*
X934529Y725149D01*
X934585Y723595D01*
X934574D01*
X934563D01*
X934485Y723573D01*
X934385Y723551D01*
X934263Y723506D01*
X934119Y723451D01*
X933985Y723373D01*
X933852Y723273D01*
X933741Y723162D01*
X933730Y723151D01*
X933697Y723107D01*
X933652Y723029D01*
X933608Y722918D01*
X933564Y722785D01*
X933519Y722618D01*
X933486Y722419D01*
X933475Y722186D01*
Y722075D01*
X933486Y721952D01*
X933508Y721808D01*
X933541Y721642D01*
X933597Y721464D01*
X933663Y721298D01*
X933763Y721142D01*
X933774Y721131D01*
X933797Y721109D01*
X933830Y721064D01*
X933885Y721020D01*
X933952Y720976D01*
X934041Y720931D01*
X934130Y720909D01*
X934241Y720898D01*
X934252D01*
X934285D01*
X934341Y720909D01*
X934396Y720931D01*
X934474Y720953D01*
X934551Y720987D01*
X934629Y721042D01*
X934707Y721120D01*
X934718Y721131D01*
X934751Y721187D01*
X934773Y721220D01*
X934796Y721275D01*
X934829Y721331D01*
X934862Y721408D01*
X934895Y721497D01*
X934940Y721597D01*
X934984Y721719D01*
X935029Y721841D01*
X935073Y721997D01*
X935117Y722163D01*
X935162Y722341D01*
X935217Y722541D01*
Y722552D01*
X935229Y722596D01*
X935240Y722652D01*
X935262Y722729D01*
X935284Y722818D01*
X935317Y722929D01*
X935351Y723051D01*
X935384Y723173D01*
X935473Y723440D01*
X935562Y723717D01*
X935661Y723984D01*
X935717Y724095D01*
X935772Y724206D01*
Y724217D01*
X935783Y724228D01*
X935828Y724295D01*
X935894Y724394D01*
X935983Y724517D01*
X936094Y724650D01*
X936227Y724794D01*
X936383Y724938D01*
X936561Y725060D01*
X936583Y725071D01*
X936649Y725105D01*
X936749Y725160D01*
X936893Y725216D01*
X937071Y725271D01*
X937282Y725327D01*
X937515Y725360D01*
X937782Y725371D01*
X937793D01*
X937815D01*
X937848D01*
X937893D01*
X937948Y725360D01*
D02*
G37*
G36*
X963039Y733263D02*
X963106Y733241D01*
X963195Y733208D01*
X963294Y733163D01*
X963417Y733119D01*
X963550Y733063D01*
X963694Y732997D01*
X963994Y732841D01*
X964305Y732642D01*
X964604Y732397D01*
X964737Y732264D01*
X964859Y732120D01*
X964871Y732109D01*
X964882Y732087D01*
X964915Y732042D01*
X964959Y731976D01*
X965004Y731898D01*
X965048Y731798D01*
X965104Y731687D01*
X965159Y731565D01*
X965226Y731421D01*
X965281Y731265D01*
X965326Y731099D01*
X965370Y730921D01*
X965415Y730732D01*
X965448Y730521D01*
X965459Y730311D01*
X965470Y730078D01*
Y730011D01*
X965459Y729933D01*
X965448Y729822D01*
X965437Y729700D01*
X965415Y729545D01*
X965381Y729378D01*
X965337Y729190D01*
X965281Y729001D01*
X965215Y728801D01*
X965126Y728590D01*
X965026Y728379D01*
X964915Y728168D01*
X964771Y727957D01*
X964615Y727758D01*
X964427Y727569D01*
X964416Y727558D01*
X964382Y727525D01*
X964316Y727480D01*
X964238Y727414D01*
X964127Y727347D01*
X964005Y727258D01*
X963849Y727169D01*
X963672Y727081D01*
X963483Y726992D01*
X963272Y726903D01*
X963028Y726814D01*
X962773Y726748D01*
X962506Y726681D01*
X962207Y726637D01*
X961896Y726603D01*
X961563Y726592D01*
X961552D01*
X961541D01*
X961474D01*
X961374Y726603D01*
X961241D01*
X961086Y726626D01*
X960897Y726648D01*
X960697Y726670D01*
X960464Y726714D01*
X960231Y726770D01*
X959987Y726836D01*
X959743Y726914D01*
X959487Y727014D01*
X959243Y727125D01*
X959010Y727258D01*
X958788Y727402D01*
X958577Y727580D01*
X958566Y727591D01*
X958533Y727625D01*
X958477Y727680D01*
X958410Y727758D01*
X958333Y727858D01*
X958244Y727980D01*
X958144Y728113D01*
X958044Y728279D01*
X957944Y728457D01*
X957844Y728646D01*
X957756Y728868D01*
X957678Y729090D01*
X957611Y729345D01*
X957556Y729600D01*
X957523Y729889D01*
X957511Y730177D01*
Y730311D01*
X957523Y730411D01*
X957534Y730533D01*
X957556Y730666D01*
X957578Y730821D01*
X957611Y730988D01*
X957656Y731165D01*
X957711Y731354D01*
X957778Y731543D01*
X957867Y731742D01*
X957955Y731931D01*
X958066Y732109D01*
X958200Y732298D01*
X958344Y732464D01*
Y732475D01*
X958366Y732486D01*
X958399Y732520D01*
X958433Y732553D01*
X958488Y732597D01*
X958555Y732642D01*
X958710Y732764D01*
X958910Y732886D01*
X959154Y733019D01*
X959432Y733141D01*
X959754Y733252D01*
X960120Y731720D01*
X960109D01*
X960098Y731709D01*
X960064D01*
X960020Y731687D01*
X959920Y731654D01*
X959787Y731598D01*
X959632Y731520D01*
X959476Y731421D01*
X959321Y731287D01*
X959187Y731143D01*
X959176Y731121D01*
X959132Y731065D01*
X959077Y730977D01*
X959010Y730854D01*
X958943Y730699D01*
X958888Y730521D01*
X958843Y730322D01*
X958832Y730100D01*
Y730022D01*
X958843Y729955D01*
X958855Y729889D01*
X958866Y729800D01*
X958910Y729611D01*
X958988Y729389D01*
X959099Y729156D01*
X959165Y729034D01*
X959243Y728923D01*
X959343Y728812D01*
X959454Y728712D01*
X959465D01*
X959487Y728690D01*
X959520Y728668D01*
X959576Y728634D01*
X959643Y728590D01*
X959720Y728546D01*
X959820Y728501D01*
X959931Y728457D01*
X960064Y728401D01*
X960209Y728357D01*
X960375Y728313D01*
X960553Y728268D01*
X960753Y728235D01*
X960964Y728213D01*
X961197Y728202D01*
X961452Y728191D01*
X961463D01*
X961518D01*
X961596D01*
X961685Y728202D01*
X961807D01*
X961951Y728224D01*
X962096Y728235D01*
X962262Y728257D01*
X962606Y728324D01*
X962950Y728412D01*
X963117Y728468D01*
X963272Y728546D01*
X963417Y728623D01*
X963539Y728712D01*
X963550Y728723D01*
X963561Y728734D01*
X963594Y728768D01*
X963639Y728812D01*
X963727Y728923D01*
X963838Y729079D01*
X963960Y729267D01*
X964049Y729500D01*
X964127Y729767D01*
X964138Y729911D01*
X964149Y730066D01*
Y730122D01*
X964138Y730166D01*
X964127Y730288D01*
X964105Y730433D01*
X964049Y730588D01*
X963983Y730766D01*
X963894Y730943D01*
X963761Y731121D01*
X963738Y731143D01*
X963683Y731199D01*
X963594Y731276D01*
X963461Y731365D01*
X963283Y731476D01*
X963072Y731576D01*
X962817Y731676D01*
X962517Y731765D01*
X962984Y733274D01*
X962995D01*
X963039Y733263D01*
D02*
G37*
G36*
X965337Y723673D02*
X960275Y720554D01*
X965337D01*
Y719122D01*
X957656D01*
Y720620D01*
X962828Y723795D01*
X957656D01*
Y725227D01*
X965337D01*
Y723673D01*
D02*
G37*
%LPC*%
G36*
X858612Y731831D02*
X858590D01*
X858545D01*
X858479Y731820D01*
X858390Y731809D01*
X858290Y731776D01*
X858190Y731742D01*
X858079Y731687D01*
X857990Y731620D01*
X857979Y731609D01*
X857946Y731587D01*
X857913Y731532D01*
X857857Y731465D01*
X857802Y731387D01*
X857757Y731287D01*
X857713Y731165D01*
X857680Y731032D01*
Y731021D01*
X857669Y730988D01*
Y730921D01*
X857657Y730821D01*
Y730577D01*
X857646Y730477D01*
Y728701D01*
X859600D01*
Y730211D01*
X859589Y730433D01*
X859578Y730666D01*
X859567Y730899D01*
X859556Y730999D01*
X859544Y731088D01*
X859522Y731176D01*
X859511Y731232D01*
Y731243D01*
X859489Y731276D01*
X859467Y731332D01*
X859433Y731387D01*
X859333Y731532D01*
X859267Y731598D01*
X859189Y731665D01*
X859178Y731676D01*
X859145Y731687D01*
X859100Y731720D01*
X859034Y731754D01*
X858945Y731776D01*
X858845Y731809D01*
X858734Y731820D01*
X858612Y731831D01*
D02*
G37*
G36*
X809551Y740323D02*
X809540D01*
X809506D01*
X809462D01*
X809406D01*
X809329D01*
X809240Y740312D01*
X809051Y740300D01*
X808829Y740278D01*
X808596Y740256D01*
X808385Y740212D01*
X808186Y740156D01*
X808174D01*
X808163Y740145D01*
X808108Y740123D01*
X808019Y740089D01*
X807908Y740045D01*
X807797Y739978D01*
X807675Y739901D01*
X807553Y739812D01*
X807442Y739712D01*
X807431Y739701D01*
X807397Y739668D01*
X807353Y739601D01*
X807298Y739523D01*
X807231Y739412D01*
X807175Y739290D01*
X807120Y739157D01*
X807076Y739002D01*
Y738991D01*
X807064Y738935D01*
X807053Y738846D01*
X807031Y738724D01*
Y738647D01*
X807020Y738547D01*
Y738447D01*
X807009Y738336D01*
Y738203D01*
X806998Y738058D01*
Y737048D01*
X812082D01*
Y738413D01*
X812070Y738558D01*
Y738713D01*
X812048Y738869D01*
X812037Y739013D01*
X812015Y739135D01*
Y739157D01*
X811993Y739202D01*
X811971Y739268D01*
X811937Y739357D01*
X811893Y739457D01*
X811837Y739557D01*
X811771Y739657D01*
X811693Y739756D01*
X811682Y739768D01*
X811649Y739801D01*
X811593Y739845D01*
X811515Y739901D01*
X811415Y739956D01*
X811293Y740034D01*
X811138Y740089D01*
X810960Y740156D01*
X810949D01*
X810938Y740167D01*
X810905D01*
X810861Y740178D01*
X810816Y740201D01*
X810750Y740212D01*
X810583Y740245D01*
X810383Y740267D01*
X810150Y740300D01*
X809862Y740312D01*
X809551Y740323D01*
D02*
G37*
G36*
X886312Y731221D02*
X883459Y730144D01*
X886312Y729101D01*
Y731221D01*
D02*
G37*
G36*
X911636D02*
X908783Y730144D01*
X911636Y729101D01*
Y731221D01*
D02*
G37*
%LPD*%
D10*
X878610Y801400D02*
G03*
X878610Y801400I-2000J0D01*
G01*
D11*
X771668Y715566D02*
X974868D01*
X771668Y690166D02*
Y715566D01*
Y690166D02*
X974868D01*
Y715566D01*
X826000Y746000D02*
Y754000D01*
X772000Y746000D02*
X826000D01*
X772000D02*
Y757000D01*
X769000D02*
X772000D01*
X769000Y746000D02*
Y757000D01*
Y746000D02*
X772000D01*
X826051Y767805D02*
Y775805D01*
X772051D02*
X826051D01*
X772051Y764805D02*
Y775805D01*
X769051Y764805D02*
X772051D01*
X769051D02*
Y775805D01*
X772051D01*
D12*
X830000Y762000D02*
X848000D01*
X844000Y745000D02*
X848000D01*
Y779000D01*
X844000D02*
X848000D01*
X830000D02*
X834000D01*
X830000Y745000D02*
Y779000D01*
Y745000D02*
X834000D01*
X830000Y801666D02*
X848000D01*
X844000Y784666D02*
X848000D01*
Y818666D01*
X844000D02*
X848000D01*
X830000D02*
X834000D01*
X830000Y784666D02*
Y818666D01*
Y784666D02*
X834000D01*
X923248Y745750D02*
X925248D01*
X923248D02*
Y779750D01*
X925248D01*
X939248Y745750D02*
X941248D01*
Y779750D01*
X939248D02*
X941248D01*
X923248Y762750D02*
X941248D01*
X957624Y779750D02*
X961624D01*
Y745750D02*
Y779750D01*
X957624Y745750D02*
X961624D01*
X943624D02*
X947624D01*
X943624D02*
Y779750D01*
X947624D01*
X943624Y762750D02*
X961624D01*
X980000Y779750D02*
X982000D01*
Y745750D02*
Y779750D01*
X980000Y745750D02*
X982000D01*
X964000Y779750D02*
X966000D01*
X964000Y745750D02*
Y779750D01*
Y745750D02*
X966000D01*
X964000Y762750D02*
X982000D01*
D13*
X871500Y758350D02*
X903500D01*
X871500Y806350D02*
X903500D01*
X871500Y758350D02*
Y806350D01*
X867500D02*
X871500D01*
X867500Y758350D02*
X871500D01*
X866500Y793780D02*
Y796320D01*
Y781080D02*
Y783620D01*
Y768380D02*
Y770920D01*
X904600Y768380D02*
Y770920D01*
Y781080D02*
Y783620D01*
Y793780D02*
Y796320D01*
M02*
