G04*
G04 #@! TF.GenerationSoftware,Altium Limited,Altium Designer,23.8.1 (32)*
G04*
G04 Layer_Physical_Order=1*
G04 Layer_Color=255*
%FSLAX44Y44*%
%MOMM*%
G71*
G04*
G04 #@! TF.SameCoordinates,8C545C58-4F73-44F2-8FA6-FEC30D537232*
G04*
G04*
G04 #@! TF.FilePolarity,Positive*
G04*
G01*
G75*
%ADD14R,1.8000X2.2300*%
%ADD15R,1.4000X1.3000*%
%ADD16R,1.3000X0.6000*%
%ADD17R,1.3500X1.1500*%
%ADD26C,0.3000*%
%ADD27C,0.5000*%
%ADD28C,0.2540*%
%ADD29C,3.5000*%
%ADD30C,1.5000*%
%ADD31R,1.5000X1.5000*%
%ADD32C,0.6000*%
G36*
X971519Y831731D02*
X976345Y830267D01*
X980792Y827889D01*
X984690Y824690D01*
X987889Y820792D01*
X990267Y816345D01*
X991731Y811519D01*
X992097Y807802D01*
X992097Y807802D01*
X992097D01*
X992115Y807784D01*
Y781502D01*
X990845Y781376D01*
X990806Y781576D01*
X989913Y782913D01*
X985913Y786913D01*
X984576Y787806D01*
X983000Y788119D01*
X971626D01*
X971373Y789389D01*
X974708Y790771D01*
X977991Y792964D01*
X980782Y795755D01*
X982975Y799037D01*
X984486Y802685D01*
X985256Y806556D01*
Y810504D01*
X984486Y814376D01*
X982975Y818023D01*
X980782Y821305D01*
X977991Y824096D01*
X974708Y826289D01*
X971061Y827800D01*
X967190Y828570D01*
X963242D01*
X959370Y827800D01*
X955723Y826289D01*
X952441Y824096D01*
X949650Y821305D01*
X947457Y818023D01*
X945946Y814376D01*
X945176Y810504D01*
Y806556D01*
X945946Y802685D01*
X947457Y799037D01*
X949650Y795755D01*
X952441Y792964D01*
X955723Y790771D01*
X959059Y789389D01*
X958806Y788119D01*
X953706D01*
X937513Y804313D01*
X936176Y805206D01*
X934600Y805519D01*
X921040D01*
Y806940D01*
X902960D01*
Y795860D01*
X921040D01*
Y797281D01*
X932894D01*
X949087Y781087D01*
X949128Y781060D01*
X948743Y779790D01*
X943084D01*
Y774869D01*
X941538D01*
Y779790D01*
X936367D01*
Y782752D01*
X936054Y784328D01*
X935161Y785665D01*
X929213Y791613D01*
X927876Y792506D01*
X926300Y792819D01*
X921040D01*
Y794240D01*
X902960D01*
Y792819D01*
X895700D01*
X894124Y792506D01*
X892787Y791613D01*
X883055Y781881D01*
X882162Y780544D01*
X881849Y778968D01*
Y712081D01*
X879803Y710900D01*
X877934Y709031D01*
X876612Y706741D01*
X875928Y704188D01*
Y701544D01*
X876612Y698991D01*
X877934Y696701D01*
X879803Y694832D01*
X882093Y693510D01*
X884646Y692826D01*
X887290D01*
X889843Y693510D01*
X892133Y694832D01*
X894002Y696701D01*
X895324Y698991D01*
X896008Y701544D01*
Y704188D01*
X895324Y706741D01*
X894002Y709031D01*
X892133Y710900D01*
X890087Y712081D01*
Y714969D01*
X890116Y714981D01*
X891357Y715180D01*
X892087Y714087D01*
X901467Y704707D01*
X901328Y704188D01*
Y701544D01*
X902012Y698991D01*
X903334Y696701D01*
X905203Y694832D01*
X907493Y693510D01*
X910046Y692826D01*
X912690D01*
X915243Y693510D01*
X917533Y694832D01*
X919402Y696701D01*
X920724Y698991D01*
X921408Y701544D01*
Y704188D01*
X920724Y706741D01*
X919402Y709031D01*
X917533Y710900D01*
X915243Y712222D01*
X912690Y712906D01*
X910046D01*
X907493Y712222D01*
X906295Y711530D01*
X899119Y718706D01*
Y750115D01*
X922958D01*
Y745710D01*
X941538D01*
Y761940D01*
X941538Y762290D01*
Y763210D01*
X941538Y763560D01*
Y766631D01*
X943084D01*
Y761710D01*
Y756020D01*
X952624D01*
X962164D01*
Y761710D01*
X962164Y778494D01*
X962937Y778964D01*
X963710Y778494D01*
Y772770D01*
X973000D01*
Y770230D01*
X963710D01*
Y763210D01*
X963710D01*
Y762290D01*
X963710D01*
Y745710D01*
X968881D01*
Y740804D01*
X940371Y712295D01*
X938090Y712906D01*
X935446D01*
X932893Y712222D01*
X930603Y710900D01*
X928734Y709031D01*
X927412Y706741D01*
X926728Y704188D01*
Y701544D01*
X927412Y698991D01*
X928734Y696701D01*
X930603Y694832D01*
X932893Y693510D01*
X935446Y692826D01*
X938090D01*
X940643Y693510D01*
X942933Y694832D01*
X944802Y696701D01*
X946124Y698991D01*
X946808Y701544D01*
Y704188D01*
X946197Y706469D01*
X975913Y736185D01*
X976806Y737522D01*
X977119Y739098D01*
Y745710D01*
X982290D01*
Y749881D01*
X984000D01*
X985576Y750194D01*
X986913Y751087D01*
X989913Y754087D01*
X990806Y755424D01*
X990845Y755623D01*
X992115Y755498D01*
Y709228D01*
X992115Y709040D01*
X992097Y707801D01*
X992225Y706500D01*
X991731Y701481D01*
X990267Y696656D01*
X987889Y692208D01*
X984690Y688310D01*
X980792Y685110D01*
X976345Y682733D01*
X971519Y681269D01*
X967802Y680903D01*
X967802Y680903D01*
Y680903D01*
X967784Y680885D01*
X789228D01*
X789040Y680885D01*
X787802Y680903D01*
X786500Y680775D01*
X781481Y681269D01*
X776656Y682733D01*
X772208Y685110D01*
X768310Y688310D01*
X765111Y692208D01*
X762733Y696656D01*
X761270Y701481D01*
X760903Y705198D01*
X760903Y705199D01*
X760903D01*
X760885Y705216D01*
Y803772D01*
X760885Y803960D01*
X760903Y805199D01*
X760775Y806500D01*
X761269Y811519D01*
X762733Y816345D01*
X765110Y820792D01*
X768310Y824690D01*
X772208Y827889D01*
X776656Y830267D01*
X781481Y831731D01*
X785198Y832097D01*
X785199Y832097D01*
Y832097D01*
X785216Y832115D01*
X963772D01*
X963960Y832115D01*
X965199Y832097D01*
X966500Y832225D01*
X971519Y831731D01*
D02*
G37*
G36*
X928115Y781060D02*
X928094Y779790D01*
X922958D01*
Y763560D01*
X922958Y763210D01*
Y762290D01*
X922958Y761940D01*
Y757885D01*
X921040D01*
Y768840D01*
X909931D01*
X909278Y770110D01*
X909528Y770460D01*
X921040D01*
Y781540D01*
X902960D01*
Y776285D01*
X892087Y765413D01*
X891357Y764320D01*
X890116Y764519D01*
X890087Y764531D01*
Y777262D01*
X897406Y784581D01*
X902960D01*
Y783160D01*
X921040D01*
Y784581D01*
X924594D01*
X928115Y781060D01*
D02*
G37*
%LPC*%
G36*
X848540Y818706D02*
X840270D01*
Y810936D01*
X848540D01*
Y818706D01*
D02*
G37*
G36*
X837730D02*
X829460D01*
Y810936D01*
X837730D01*
Y818706D01*
D02*
G37*
G36*
X868040Y806940D02*
X849960D01*
Y795860D01*
X868040D01*
Y806940D01*
D02*
G37*
G36*
Y794240D02*
X860270D01*
Y789970D01*
X868040D01*
Y794240D01*
D02*
G37*
G36*
X791930Y828570D02*
X787982D01*
X784110Y827800D01*
X780463Y826289D01*
X777181Y824096D01*
X774390Y821305D01*
X772197Y818023D01*
X770686Y814376D01*
X769916Y810504D01*
Y806556D01*
X770686Y802685D01*
X772197Y799037D01*
X774390Y795755D01*
X777181Y792964D01*
X780463Y790771D01*
X784110Y789260D01*
X787982Y788490D01*
X791930D01*
X795801Y789260D01*
X799448Y790771D01*
X802731Y792964D01*
X805522Y795755D01*
X807715Y799037D01*
X809226Y802685D01*
X809996Y806556D01*
Y810504D01*
X809226Y814376D01*
X807715Y818023D01*
X805522Y821305D01*
X802731Y824096D01*
X799448Y826289D01*
X795801Y827800D01*
X791930Y828570D01*
D02*
G37*
G36*
X868040Y787430D02*
X860270D01*
Y783160D01*
X868040D01*
Y787430D01*
D02*
G37*
G36*
X837730Y779040D02*
X829460D01*
Y771270D01*
X837730D01*
Y779040D01*
D02*
G37*
G36*
X848540Y808396D02*
X829460D01*
Y798805D01*
X814916D01*
X812950Y798414D01*
X811282Y797300D01*
X788673Y774690D01*
X772860D01*
Y747310D01*
X779229D01*
Y712906D01*
X774328D01*
Y692826D01*
X794408D01*
Y712906D01*
X789507D01*
Y747310D01*
X795940D01*
Y767423D01*
X800887Y772369D01*
X802060Y771883D01*
Y762270D01*
X812330D01*
Y774690D01*
X804867D01*
X804381Y775863D01*
X817045Y788527D01*
X829460D01*
Y784626D01*
X841227D01*
X841587Y784087D01*
X845461Y780213D01*
X844975Y779040D01*
X840270D01*
Y771270D01*
X848540D01*
Y774110D01*
X849810Y774789D01*
X849960Y774689D01*
Y770460D01*
X868040D01*
Y781540D01*
X856528D01*
X856278Y781890D01*
X856931Y783160D01*
X857730D01*
Y788700D01*
Y794240D01*
X849960D01*
Y790358D01*
X848690Y789704D01*
X848540Y789811D01*
Y800626D01*
Y808396D01*
D02*
G37*
G36*
X825140Y774690D02*
X814870D01*
Y762270D01*
X825140D01*
Y774690D01*
D02*
G37*
G36*
X868040Y768840D02*
X849960D01*
Y762198D01*
X849881Y761800D01*
Y758119D01*
X848540D01*
Y768730D01*
X829460D01*
Y760960D01*
Y744960D01*
X834881D01*
Y724434D01*
X835194Y722858D01*
X836087Y721521D01*
X851139Y706469D01*
X850528Y704188D01*
Y701544D01*
X851212Y698991D01*
X852534Y696701D01*
X854403Y694832D01*
X856693Y693510D01*
X859246Y692826D01*
X861890D01*
X864443Y693510D01*
X866733Y694832D01*
X868602Y696701D01*
X869924Y698991D01*
X870608Y701544D01*
Y704188D01*
X869924Y706741D01*
X868602Y709031D01*
X866733Y710900D01*
X864443Y712222D01*
X861890Y712906D01*
X859246D01*
X856965Y712295D01*
X843119Y726140D01*
Y744960D01*
X848540D01*
Y749881D01*
X852243D01*
X853819Y750194D01*
X855155Y751087D01*
X856913Y752845D01*
X857806Y754181D01*
X858119Y755757D01*
Y757760D01*
X868040D01*
Y768840D01*
D02*
G37*
G36*
X825140Y759730D02*
X814870D01*
Y747310D01*
X825140D01*
Y759730D01*
D02*
G37*
G36*
X812330D02*
X802060D01*
Y747310D01*
X812330D01*
Y759730D01*
D02*
G37*
G36*
X962164Y753480D02*
X953894D01*
Y745710D01*
X962164D01*
Y753480D01*
D02*
G37*
G36*
X951354D02*
X943084D01*
Y745710D01*
X951354D01*
Y753480D01*
D02*
G37*
G36*
X811090Y712906D02*
X811038D01*
Y704136D01*
X819808D01*
Y704188D01*
X819124Y706741D01*
X817802Y709031D01*
X815933Y710900D01*
X813643Y712222D01*
X811090Y712906D01*
D02*
G37*
G36*
X808498D02*
X808446D01*
X805893Y712222D01*
X803603Y710900D01*
X801734Y709031D01*
X800412Y706741D01*
X799728Y704188D01*
Y704136D01*
X808498D01*
Y712906D01*
D02*
G37*
G36*
X963490D02*
X960846D01*
X958293Y712222D01*
X956003Y710900D01*
X954134Y709031D01*
X952812Y706741D01*
X952128Y704188D01*
Y701544D01*
X952812Y698991D01*
X954134Y696701D01*
X956003Y694832D01*
X958293Y693510D01*
X960846Y692826D01*
X963490D01*
X966043Y693510D01*
X968333Y694832D01*
X970202Y696701D01*
X971524Y698991D01*
X972208Y701544D01*
Y704188D01*
X971524Y706741D01*
X970202Y709031D01*
X968333Y710900D01*
X966043Y712222D01*
X963490Y712906D01*
D02*
G37*
G36*
X836490D02*
X833846D01*
X831293Y712222D01*
X829003Y710900D01*
X827134Y709031D01*
X825812Y706741D01*
X825128Y704188D01*
Y701544D01*
X825812Y698991D01*
X827134Y696701D01*
X829003Y694832D01*
X831293Y693510D01*
X833846Y692826D01*
X836490D01*
X839043Y693510D01*
X841333Y694832D01*
X843202Y696701D01*
X844524Y698991D01*
X845208Y701544D01*
Y704188D01*
X844524Y706741D01*
X843202Y709031D01*
X841333Y710900D01*
X839043Y712222D01*
X836490Y712906D01*
D02*
G37*
G36*
X819808Y701596D02*
X811038D01*
Y692826D01*
X811090D01*
X813643Y693510D01*
X815933Y694832D01*
X817802Y696701D01*
X819124Y698991D01*
X819808Y701544D01*
Y701596D01*
D02*
G37*
G36*
X808498D02*
X799728D01*
Y701544D01*
X800412Y698991D01*
X801734Y696701D01*
X803603Y694832D01*
X805893Y693510D01*
X808446Y692826D01*
X808498D01*
Y701596D01*
D02*
G37*
%LPD*%
D14*
X813600Y761000D02*
D03*
X784400D02*
D03*
D15*
X839000Y770000D02*
D03*
Y754000D02*
D03*
Y809666D02*
D03*
Y793666D02*
D03*
X952624Y770750D02*
D03*
Y754750D02*
D03*
D16*
X859000Y801400D02*
D03*
Y788700D02*
D03*
Y776000D02*
D03*
Y763300D02*
D03*
X912000D02*
D03*
Y776000D02*
D03*
Y788700D02*
D03*
Y801400D02*
D03*
D17*
X932248Y754000D02*
D03*
Y771500D02*
D03*
X973000Y771500D02*
D03*
Y754000D02*
D03*
D26*
X839000Y724434D02*
Y754000D01*
X852243D01*
X839000Y724434D02*
X860568Y702866D01*
X852243Y754000D02*
X854000Y755757D01*
Y761800D01*
X885968Y702866D02*
Y778968D01*
X839000Y793666D02*
X839500D01*
X844500Y788666D01*
Y787000D02*
Y788666D01*
Y787000D02*
X855500Y776000D01*
X854000Y761800D02*
X855500Y763300D01*
X859000D01*
X855500Y776000D02*
X859000D01*
X895000Y762500D02*
X908500Y776000D01*
X895000Y717000D02*
Y754000D01*
Y762500D01*
X987000Y757000D02*
Y780000D01*
X936768Y702866D02*
X973000Y739098D01*
Y754000D01*
X984000D01*
X987000Y757000D01*
X932248Y771500D02*
X932998Y770750D01*
X952624D01*
X934600Y801400D02*
X952000Y784000D01*
X983000D01*
X987000Y780000D01*
X885968Y778968D02*
X895700Y788700D01*
X912000D01*
X932248Y771500D02*
Y782752D01*
X908500Y776000D02*
X912000D01*
Y788700D02*
X926300D01*
X912000Y801400D02*
X934600D01*
X926300Y788700D02*
X932248Y782752D01*
X909134Y702866D02*
X911368D01*
X895000Y717000D02*
X909134Y702866D01*
D27*
X784368D02*
Y760968D01*
X784400Y761000D01*
Y763150D01*
X814916Y793666D01*
X839000D01*
D28*
X895000Y754000D02*
X895000Y754000D01*
X932248D01*
D29*
X965216Y808530D02*
D03*
X789956D02*
D03*
D30*
X962168Y702866D02*
D03*
X936768D02*
D03*
X911368D02*
D03*
X885968D02*
D03*
X860568D02*
D03*
X835168D02*
D03*
X809768D02*
D03*
D31*
X784368D02*
D03*
D32*
X859000Y801400D02*
D03*
X912000Y763300D02*
D03*
M02*
