G04*
G04 #@! TF.GenerationSoftware,Altium Limited,Altium Designer,23.8.1 (32)*
G04*
G04 Layer_Physical_Order=2*
G04 Layer_Color=16711680*
%FSLAX44Y44*%
%MOMM*%
G71*
G04*
G04 #@! TF.SameCoordinates,8C545C58-4F73-44F2-8FA6-FEC30D537232*
G04*
G04*
G04 #@! TF.FilePolarity,Positive*
G04*
G01*
G75*
%ADD26C,0.3000*%
%ADD29C,3.5000*%
%ADD30C,1.5000*%
%ADD31R,1.5000X1.5000*%
%ADD32C,0.6000*%
G36*
X971519Y831731D02*
X976345Y830267D01*
X980792Y827889D01*
X984690Y824690D01*
X987889Y820792D01*
X990267Y816345D01*
X991731Y811519D01*
X992097Y807802D01*
X992097Y807802D01*
X992097D01*
X992115Y807784D01*
Y709228D01*
X992115Y709040D01*
X992097Y707801D01*
X992225Y706500D01*
X991731Y701481D01*
X990267Y696656D01*
X987889Y692208D01*
X984690Y688310D01*
X980792Y685110D01*
X976345Y682733D01*
X971519Y681269D01*
X967802Y680903D01*
X967802Y680903D01*
Y680903D01*
X967784Y680885D01*
X789228D01*
X789040Y680885D01*
X787802Y680903D01*
X786500Y680775D01*
X781481Y681269D01*
X776656Y682733D01*
X772208Y685110D01*
X768310Y688310D01*
X765111Y692208D01*
X762733Y696656D01*
X761270Y701481D01*
X760903Y705198D01*
X760903Y705199D01*
X760903D01*
X760885Y705216D01*
Y803772D01*
X760885Y803960D01*
X760903Y805199D01*
X760775Y806500D01*
X761269Y811519D01*
X762733Y816345D01*
X765110Y820792D01*
X768310Y824690D01*
X772208Y827889D01*
X776656Y830267D01*
X781481Y831731D01*
X785198Y832097D01*
X785199Y832097D01*
Y832097D01*
X785216Y832115D01*
X963772D01*
X963960Y832115D01*
X965199Y832097D01*
X966500Y832225D01*
X971519Y831731D01*
D02*
G37*
%LPC*%
G36*
X967190Y828570D02*
X963242D01*
X959370Y827800D01*
X955723Y826289D01*
X952441Y824096D01*
X949650Y821305D01*
X947457Y818023D01*
X945946Y814376D01*
X945176Y810504D01*
Y806556D01*
X945946Y802685D01*
X947457Y799037D01*
X949650Y795755D01*
X952441Y792964D01*
X955723Y790771D01*
X959370Y789260D01*
X963242Y788490D01*
X967190D01*
X971061Y789260D01*
X974708Y790771D01*
X977991Y792964D01*
X980782Y795755D01*
X982975Y799037D01*
X984486Y802685D01*
X985256Y806556D01*
Y810504D01*
X984486Y814376D01*
X982975Y818023D01*
X980782Y821305D01*
X977991Y824096D01*
X974708Y826289D01*
X971061Y827800D01*
X967190Y828570D01*
D02*
G37*
G36*
X791930D02*
X787982D01*
X784110Y827800D01*
X780463Y826289D01*
X777181Y824096D01*
X774390Y821305D01*
X772197Y818023D01*
X770686Y814376D01*
X769916Y810504D01*
Y806556D01*
X770686Y802685D01*
X772197Y799037D01*
X774390Y795755D01*
X777181Y792964D01*
X780463Y790771D01*
X784110Y789260D01*
X787982Y788490D01*
X791930D01*
X795801Y789260D01*
X799448Y790771D01*
X802731Y792964D01*
X805522Y795755D01*
X807715Y799037D01*
X809226Y802685D01*
X809996Y806556D01*
Y810504D01*
X809226Y814376D01*
X807715Y818023D01*
X805522Y821305D01*
X802731Y824096D01*
X799448Y826289D01*
X795801Y827800D01*
X791930Y828570D01*
D02*
G37*
G36*
X860102Y806940D02*
X857898D01*
X855862Y806097D01*
X854303Y804538D01*
X853460Y802502D01*
Y800298D01*
X854303Y798262D01*
X855862Y796703D01*
X857898Y795860D01*
X860102D01*
X862138Y796703D01*
X862716Y797281D01*
X865894D01*
X869881Y793294D01*
Y743404D01*
X838771Y712295D01*
X836490Y712906D01*
X833846D01*
X831293Y712222D01*
X829003Y710900D01*
X827134Y709031D01*
X825812Y706741D01*
X825128Y704188D01*
Y701544D01*
X825812Y698991D01*
X827134Y696701D01*
X829003Y694832D01*
X831293Y693510D01*
X833846Y692826D01*
X836490D01*
X839043Y693510D01*
X841333Y694832D01*
X843202Y696701D01*
X844524Y698991D01*
X845208Y701544D01*
Y704188D01*
X844597Y706469D01*
X876913Y738785D01*
X877806Y740122D01*
X878119Y741698D01*
Y795000D01*
X877806Y796576D01*
X876913Y797913D01*
X870513Y804313D01*
X869176Y805206D01*
X867600Y805519D01*
X862716D01*
X862138Y806097D01*
X860102Y806940D01*
D02*
G37*
G36*
X811090Y712906D02*
X811038D01*
Y704136D01*
X819808D01*
Y704188D01*
X819124Y706741D01*
X817802Y709031D01*
X815933Y710900D01*
X813643Y712222D01*
X811090Y712906D01*
D02*
G37*
G36*
X808498D02*
X808446D01*
X805893Y712222D01*
X803603Y710900D01*
X801734Y709031D01*
X800412Y706741D01*
X799728Y704188D01*
Y704136D01*
X808498D01*
Y712906D01*
D02*
G37*
G36*
X913102Y768840D02*
X910898D01*
X908862Y767997D01*
X907303Y766438D01*
X906460Y764402D01*
Y762198D01*
X907303Y760162D01*
X907881Y759584D01*
Y751000D01*
X908194Y749424D01*
X909087Y748087D01*
X952309Y704865D01*
X952128Y704188D01*
Y701544D01*
X952812Y698991D01*
X954134Y696701D01*
X956003Y694832D01*
X958293Y693510D01*
X960846Y692826D01*
X963490D01*
X966043Y693510D01*
X968333Y694832D01*
X970202Y696701D01*
X971524Y698991D01*
X972208Y701544D01*
Y704188D01*
X971524Y706741D01*
X970202Y709031D01*
X968333Y710900D01*
X966043Y712222D01*
X963490Y712906D01*
X960846D01*
X958293Y712222D01*
X957222Y711603D01*
X916119Y752706D01*
Y759584D01*
X916697Y760162D01*
X917540Y762198D01*
Y764402D01*
X916697Y766438D01*
X915138Y767997D01*
X913102Y768840D01*
D02*
G37*
G36*
X938090Y712906D02*
X935446D01*
X932893Y712222D01*
X930603Y710900D01*
X928734Y709031D01*
X927412Y706741D01*
X926728Y704188D01*
Y701544D01*
X927412Y698991D01*
X928734Y696701D01*
X930603Y694832D01*
X932893Y693510D01*
X935446Y692826D01*
X938090D01*
X940643Y693510D01*
X942933Y694832D01*
X944802Y696701D01*
X946124Y698991D01*
X946808Y701544D01*
Y704188D01*
X946124Y706741D01*
X944802Y709031D01*
X942933Y710900D01*
X940643Y712222D01*
X938090Y712906D01*
D02*
G37*
G36*
X912690D02*
X910046D01*
X907493Y712222D01*
X905203Y710900D01*
X903334Y709031D01*
X902012Y706741D01*
X901328Y704188D01*
Y701544D01*
X902012Y698991D01*
X903334Y696701D01*
X905203Y694832D01*
X907493Y693510D01*
X910046Y692826D01*
X912690D01*
X915243Y693510D01*
X917533Y694832D01*
X919402Y696701D01*
X920724Y698991D01*
X921408Y701544D01*
Y704188D01*
X920724Y706741D01*
X919402Y709031D01*
X917533Y710900D01*
X915243Y712222D01*
X912690Y712906D01*
D02*
G37*
G36*
X887290D02*
X884646D01*
X882093Y712222D01*
X879803Y710900D01*
X877934Y709031D01*
X876612Y706741D01*
X875928Y704188D01*
Y701544D01*
X876612Y698991D01*
X877934Y696701D01*
X879803Y694832D01*
X882093Y693510D01*
X884646Y692826D01*
X887290D01*
X889843Y693510D01*
X892133Y694832D01*
X894002Y696701D01*
X895324Y698991D01*
X896008Y701544D01*
Y704188D01*
X895324Y706741D01*
X894002Y709031D01*
X892133Y710900D01*
X889843Y712222D01*
X887290Y712906D01*
D02*
G37*
G36*
X861890D02*
X859246D01*
X856693Y712222D01*
X854403Y710900D01*
X852534Y709031D01*
X851212Y706741D01*
X850528Y704188D01*
Y701544D01*
X851212Y698991D01*
X852534Y696701D01*
X854403Y694832D01*
X856693Y693510D01*
X859246Y692826D01*
X861890D01*
X864443Y693510D01*
X866733Y694832D01*
X868602Y696701D01*
X869924Y698991D01*
X870608Y701544D01*
Y704188D01*
X869924Y706741D01*
X868602Y709031D01*
X866733Y710900D01*
X864443Y712222D01*
X861890Y712906D01*
D02*
G37*
G36*
X819808Y701596D02*
X811038D01*
Y692826D01*
X811090D01*
X813643Y693510D01*
X815933Y694832D01*
X817802Y696701D01*
X819124Y698991D01*
X819808Y701544D01*
Y701596D01*
D02*
G37*
G36*
X808498D02*
X799728D01*
Y701544D01*
X800412Y698991D01*
X801734Y696701D01*
X803603Y694832D01*
X805893Y693510D01*
X808446Y692826D01*
X808498D01*
Y701596D01*
D02*
G37*
G36*
X794408Y712906D02*
X774328D01*
Y692826D01*
X794408D01*
Y712906D01*
D02*
G37*
%LPD*%
D26*
X867600Y801400D02*
X874000Y795000D01*
Y741698D02*
Y795000D01*
X835168Y702866D02*
X874000Y741698D01*
X859000Y801400D02*
X867600D01*
X912000Y751000D02*
X960134Y702866D01*
X962168D01*
X912000Y751000D02*
Y763300D01*
D29*
X965216Y808530D02*
D03*
X789956D02*
D03*
D30*
X962168Y702866D02*
D03*
X936768D02*
D03*
X911368D02*
D03*
X885968D02*
D03*
X860568D02*
D03*
X835168D02*
D03*
X809768D02*
D03*
D31*
X784368D02*
D03*
D32*
X859000Y801400D02*
D03*
X912000Y763300D02*
D03*
M02*
